<svg width="750" height="370" viewBox="0 0 750 370" fill="none" xmlns="http://www.w3.org/2000/svg">
<g clip-path="url(#clip0_108_11)">
<rect width="750" height="370" rx="15" fill="#48576A"/>
<path d="M443.59 149.561C449.511 143.287 459.489 143.287 465.41 149.561L862.345 570.205C871.373 579.773 864.59 595.5 851.435 595.5H57.5649C44.41 595.5 37.627 579.773 46.6553 570.205L443.59 149.561Z" fill="#394454"/>
<circle cx="535" cy="108" r="31" fill="#48576A"/>
<path d="M203.59 64.5612C209.511 58.2875 219.489 58.2875 225.41 64.5612L622.345 485.205C631.373 494.773 624.59 510.5 611.435 510.5H-182.435C-195.59 510.5 -202.373 494.773 -193.345 485.205L203.59 64.5612Z" fill="#283342"/>
<circle cx="405" cy="77" r="31" fill="#273342"/>
</g>
<defs>
<clipPath id="clip0_108_11">
<rect width="750" height="370" rx="15" fill="white"/>
</clipPath>
</defs>
</svg>
